<?xml version="1.0" encoding="utf-8"?>
<!-- Generator: Adobe Illustrator 19.2.1, SVG Export Plug-In . SVG Version: 6.00 Build 0)  -->
<!DOCTYPE svg PUBLIC "-//W3C//DTD SVG 1.1//EN" "http://www.w3.org/Graphics/SVG/1.1/DTD/svg11.dtd">
<svg version="1.1" id="Layer_1" xmlns="http://www.w3.org/2000/svg" xmlns:xlink="http://www.w3.org/1999/xlink" x="0px" y="0px"
	 viewBox="0 0 378.6 135.5" style="enable-background:new 0 0 378.6 135.5;" xml:space="preserve">
<style type="text/css">
	.st0{fill:#F07622;}
	.st1{fill:#939598;}
</style>
<path class="st0" d="M0,99.7l8.8-21.5H60c0,0,6.2,0.2,8.4-3.9c1.5-3.9,4.2-15-0.4-15c-4.9,0.1-33.5,0-33.5,0l7.5-19.8l35.7-0.4
	c4.5,0.3,18.6,4.6,12.7,24.5c-0.9,3.2-7.9,36.3-36.8,36.3C38,99.5,0,99.7,0,99.7z"/>
<path class="st1" d="M132.9,0.3L96.5,99.4h14.9c0,0,5.4,1.4,9.7-10.3S153.5,0,153.5,0S133.2,0,132.9,0.3z"/>
<path class="st0" d="M136,98.5h200.8c0,0,19.2-0.6,27.5-16.6c8.3-16,14.3-32.6,14.3-32.6h-20l-10.3,24.3c0,0-1.4,5.4-7.7,5.4
	c-6.3,0-13.7,0-13.7,0l12.6-30.6h-19.8l-10,24.8c0,0-2.4,5.6-6.6,5.8c-5.2,0-15.2,0-15.2,0L301,48.7h-20.3l-10,24.1
	c0,0-0.6,6.3-9.2,6.3c-8.6,0-62.1,0-62.1,0s22.6-30.6-5.2-39.2c-9.2,0-26.1-0.3-26.1-0.3l-8.6,18.9h21.8c0,0,8.9-0.9,5.4,9.2
	c-2.5,6.8-3.2,11.6-12.9,11.6s-30.9,0.1-30.9,0.1L136,98.5z"/>
<path class="st1" d="M126.2,132c0.8,0.5,2,0.9,3.3,0.9c1.2,0,2.2-0.5,2.2-1.7c0-0.8-0.6-1.3-1.9-2c-1.5-0.8-2.9-1.9-2.9-3.8
	c0-2.9,2.5-4.6,5.5-4.6c1.7,0,2.7,0.4,3.3,0.7l-0.9,2.5c-0.5-0.3-1.5-0.7-2.6-0.6c-1.4,0-2.1,0.7-2.1,1.5c0,0.8,0.9,1.3,2,2
	c1.7,0.9,2.8,2.1,2.8,3.7c0,3.2-2.6,4.8-5.7,4.8c-1.9,0-3.3-0.5-4-1L126.2,132z"/>
<path class="st1" d="M139.9,131.6l-1.7,3.7h-3.2l6.8-14.2h3.8l1.6,14.2h-3.1l-0.3-3.7H139.9z M143.8,129.3l-0.3-3.1
	c-0.1-0.8-0.1-1.9-0.2-2.8h0c-0.4,0.9-0.7,2-1.1,2.8l-1.4,3.1H143.8z"/>
<path class="st1" d="M151.5,121.3c1.2-0.2,2.5-0.3,3.9-0.3c2.2,0,3.9,0.5,5.1,1.5c1.1,0.9,1.8,2.4,1.8,4.4c0,2.7-1.1,5.1-2.9,6.5
	c-1.6,1.3-3.7,1.9-6.7,1.9c-1.7,0-3.1-0.1-3.8-0.3L151.5,121.3z M152.3,132.9c0.4,0.1,0.8,0.1,1.3,0.1c1.6,0,3-0.6,4-1.7
	c1-1.1,1.5-2.6,1.5-4.3c0-2.2-1.2-3.6-3.7-3.6c-0.5,0-1,0-1.3,0.1L152.3,132.9z"/>
<path class="st1" d="M166.5,131.6l-1.7,3.7h-3.2l6.8-14.2h3.8l1.6,14.2h-3.1l-0.3-3.7H166.5z M170.4,129.3l-0.3-3.1
	c-0.1-0.8-0.1-1.9-0.2-2.8h0c-0.4,0.9-0.7,2-1.1,2.8l-1.4,3.1H170.4z"/>
<path class="st1" d="M178.1,121.3c1.2-0.2,2.5-0.3,3.9-0.3c2.2,0,3.9,0.5,5.1,1.5c1.1,0.9,1.8,2.4,1.8,4.4c0,2.7-1.1,5.1-2.9,6.5
	c-1.6,1.3-3.7,1.9-6.7,1.9c-1.7,0-3.1-0.1-3.8-0.3L178.1,121.3z M178.9,132.9c0.4,0.1,0.8,0.1,1.3,0.1c1.6,0,3-0.6,4-1.7
	c1-1.1,1.5-2.6,1.5-4.3c0-2.2-1.2-3.6-3.7-3.6c-0.5,0-1,0-1.3,0.1L178.9,132.9z"/>
<path class="st1" d="M196,121.4c0.9-0.2,2.3-0.4,3.6-0.4c1.2,0,2.7,0.2,3.7,0.9c0.9,0.7,1.5,1.6,1.5,3c0,1.8-0.8,3.1-1.9,4
	c-1.1,0.9-2.8,1.3-4.5,1.3c-0.5,0-0.9,0-1.2-0.1l-1,5.1h-2.9L196,121.4z M197.7,127.7c0.3,0.1,0.6,0.1,1.1,0.1c1.8,0,3-1.2,3-2.6
	c0-1.4-1-1.8-2.1-1.8c-0.6,0-1,0-1.2,0.1L197.7,127.7z"/>
<path class="st1" d="M207.6,131.6l-1.7,3.7h-3.2l6.8-14.2h3.8l1.6,14.2h-3.1l-0.3-3.7H207.6z M211.5,129.3l-0.3-3.1
	c-0.1-0.8-0.1-1.9-0.2-2.8h0c-0.4,0.9-0.7,2-1.1,2.8l-1.4,3.1H211.5z"/>
<path class="st1" d="M217.9,135.3l1.1-5.8l-2.7-8.4h3.2l0.9,3.6c0.2,1.2,0.4,1.9,0.5,2.6h0c0.4-0.8,0.8-1.6,1.4-2.6l2.1-3.6h3.6
	l-6,8.3l-1.1,5.9H217.9z"/>
<path class="st1" d="M238.2,135.3l0.8-5.9c0.2-1.5,0.5-3.5,0.9-5.5H240c-0.8,1.8-1.6,3.8-2.4,5.3l-2.9,5.8h-2.3l-0.5-5.7
	c-0.1-1.6-0.2-3.5-0.3-5.4h0c-0.4,1.9-0.8,4-1.2,5.5l-1.4,5.9h-2.7l3.5-14.2h4l0.4,5.4c0.1,1.3,0.2,2.9,0.2,4.5h0.1
	c0.5-1.6,1.3-3.2,1.9-4.5l2.6-5.4h4l-1.9,14.2H238.2z"/>
<path class="st1" d="M252.7,129.3h-5l-0.6,3.4h5.6l-0.5,2.6h-8.6l2.7-14.2h8.3l-0.5,2.6h-5.3l-0.6,3h5L252.7,129.3z"/>
<path class="st1" d="M254.3,135.3l2.7-14.2h3.5l1.8,5.4c0.6,1.8,0.9,3.3,1.3,4.8h0.1c0.1-1.5,0.2-3,0.6-5.1l1-5.2h2.8l-2.6,14.2
	h-3.1l-1.9-5.7c-0.6-1.9-1-3.2-1.4-4.9l-0.1,0c-0.2,1.4-0.5,3.4-0.9,5.6l-0.9,5H254.3z"/>
<path class="st1" d="M272.8,123.8h-3.7l0.5-2.7H280l-0.5,2.7h-3.7l-2.1,11.5h-3L272.8,123.8z"/>
<path class="st1" d="M283.4,132c0.8,0.5,2,0.9,3.3,0.9c1.2,0,2.2-0.5,2.2-1.7c0-0.8-0.6-1.3-1.9-2c-1.5-0.8-2.9-1.9-2.9-3.8
	c0-2.9,2.5-4.6,5.5-4.6c1.7,0,2.7,0.4,3.3,0.7l-0.9,2.5c-0.5-0.3-1.4-0.7-2.6-0.6c-1.4,0-2.1,0.7-2.1,1.5c0,0.8,0.9,1.3,2,2
	c1.7,0.9,2.8,2.1,2.8,3.7c0,3.2-2.6,4.8-5.7,4.8c-1.9,0-3.3-0.5-4-1L283.4,132z"/>
<path class="st1" d="M296.1,135.3l1.1-5.8l-2.7-8.4h3.2l0.9,3.6c0.2,1.2,0.4,1.9,0.5,2.6h0c0.4-0.8,0.8-1.6,1.4-2.6l2.1-3.6h3.6
	l-6,8.3l-1.1,5.9H296.1z"/>
<path class="st1" d="M305.4,132c0.8,0.5,2,0.9,3.3,0.9c1.2,0,2.2-0.5,2.2-1.7c0-0.8-0.6-1.3-1.9-2c-1.5-0.8-2.9-1.9-2.9-3.8
	c0-2.9,2.5-4.6,5.5-4.6c1.7,0,2.7,0.4,3.3,0.7l-0.9,2.5c-0.5-0.3-1.4-0.7-2.6-0.6c-1.4,0-2.1,0.7-2.1,1.5c0,0.8,0.9,1.3,2,2
	c1.7,0.9,2.8,2.1,2.8,3.7c0,3.2-2.6,4.8-5.7,4.8c-1.9,0-3.3-0.5-4-1L305.4,132z"/>
<path class="st1" d="M320,123.8h-3.7l0.5-2.7h10.4l-0.5,2.7H323l-2.1,11.5h-3L320,123.8z"/>
<path class="st1" d="M335.3,129.3h-5l-0.6,3.4h5.6l-0.5,2.6h-8.6l2.7-14.2h8.3l-0.5,2.6h-5.3l-0.6,3h5L335.3,129.3z"/>
<path class="st1" d="M348.6,135.3l0.8-5.9c0.2-1.5,0.5-3.5,0.9-5.5h-0.1c-0.8,1.8-1.6,3.8-2.4,5.3l-2.9,5.8h-2.3l-0.5-5.7
	c-0.1-1.6-0.2-3.5-0.3-5.4h0c-0.4,1.9-0.8,4-1.2,5.5l-1.4,5.9h-2.7l3.5-14.2h4l0.4,5.4c0.1,1.3,0.2,2.9,0.2,4.5h0.1
	c0.5-1.6,1.3-3.2,1.9-4.5l2.6-5.4h4l-1.9,14.2H348.6z"/>
</svg>
