<?xml version="1.0" encoding="utf-8"?>
<!-- Generator: Adobe Illustrator 21.0.2, SVG Export Plug-In . SVG Version: 6.00 Build 0)  -->
<svg version="1.1" id="Layer_1" xmlns="http://www.w3.org/2000/svg" xmlns:xlink="http://www.w3.org/1999/xlink" x="0px" y="0px"
	 viewBox="0 0 32.1 20" style="enable-background:new 0 0 32.1 20;" xml:space="preserve">
<style type="text/css">
	.st0{fill:#F7B600;}
	.st1{fill:#1A1F71;}
</style>
<g>
	<rect y="17.1" class="st0" width="32.1" height="2.9"/>
	<rect class="st1" width="32.1" height="2.9"/>
	<path class="st1" d="M12.9,6.1L9.5,14H7.4L5.7,7.6C5.6,7.3,5.6,7.1,5.3,7c-0.5-0.3-1.3-0.5-2-0.7l0-0.2h3.5c0.4,0,0.8,0.3,0.9,0.8
		l0.9,4.6l2.1-5.4H12.9z M21.3,11.4c0-2.1-2.9-2.2-2.9-3.1c0-0.3,0.3-0.6,0.9-0.7c0.3,0,1.1-0.1,2,0.4l0.4-1.7
		c-0.5-0.2-1.1-0.3-1.9-0.3c-2,0-3.4,1.1-3.5,2.6c0,1.1,1,1.8,1.8,2.2c0.8,0.4,1.1,0.6,1.1,1c0,0.5-0.6,0.8-1.2,0.8
		c-1,0-1.6-0.3-2.1-0.5l-0.4,1.7c0.5,0.2,1.4,0.4,2.3,0.4C19.9,14.1,21.3,13,21.3,11.4 M26.7,14h1.9l-1.7-7.9h-1.7
		c-0.4,0-0.7,0.2-0.9,0.6L21.2,14h2.2l0.4-1.2h2.6L26.7,14z M24.4,11.2l1.1-3l0.6,3H24.4z M15.8,6.1L14.1,14h-2l1.7-7.9H15.8z"/>
</g>
</svg>
