<?xml version="1.0" encoding="utf-8"?>
<!-- Generator: Adobe Illustrator 20.0.0, SVG Export Plug-In . SVG Version: 6.00 Build 0)  -->
<svg version="1.1" id="Layer_1" xmlns="http://www.w3.org/2000/svg" xmlns:xlink="http://www.w3.org/1999/xlink" x="0px" y="0px"
	 viewBox="0 0 28 26" style="enable-background:new 0 0 28 26;" xml:space="preserve">
<style type="text/css">
	.st0{fill:#015796;}
	.st1{fill:#FCB130;}
	.st2{fill:#EC2130;}
	.st3{fill:#FFFFFF;}
	.st4{fill:#203A70;}
</style>
<g>
	<g>
		<polygon class="st0" points="8.3,8.5 10.6,0.8 12.8,0.8 10.4,8.5 		"/>
		<path class="st0" d="M7.4,0.8L5.5,4C5,4.9,4.7,5.3,4.6,5.9l0,0c0-0.7-0.1-1.6-0.1-2L4.3,0.8H0.8L0.7,1c0.9,0,1.4,0.5,1.6,1.4
			l0.7,6.1h2.2l4.4-7.8L7.4,0.8L7.4,0.8z"/>
		<path class="st0" d="M23.6,8.5l-0.1-1.2H21l-0.5,1.2h-2.3l4.1-7.7h2.8l0.7,7.7H23.6L23.6,8.5z M23.4,3.9c0-0.6-0.1-1.4,0-1.8l0,0
			c-0.1,0.4-0.6,1.6-0.9,2.1l-0.8,1.7h1.8L23.4,3.9L23.4,3.9z"/>
		<path class="st0" d="M15,8.7c-1.5,0-2.5-0.5-3.2-0.9l1-1.6C13.4,6.6,13.9,7,15,7c0.4,0,0.7-0.1,0.9-0.5c0.3-0.5-0.1-0.8-0.9-1.2
			l-0.3-0.3c-1.2-0.8-1.7-1.6-1.2-3c0.3-0.9,1.3-1.6,2.9-1.6c1.1,0,2.1,0.5,2.7,0.9L18,2.8c-0.6-0.5-1.1-0.7-1.6-0.7
			c-0.5,0-0.8,0.2-0.9,0.4c-0.2,0.5,0.1,0.7,0.7,1.1l0.5,0.3c1.5,0.9,1.8,1.9,1.4,2.8C17.5,8.3,16.3,8.7,15,8.7L15,8.7z"/>
		<path class="st0" d="M26.4,1.9h-0.1V1.1h0.3c0.2,0,0.3,0.1,0.3,0.3c0,0.1-0.1,0.2-0.2,0.3L26.9,2h-0.1l-0.2-0.4h-0.1v0.3H26.4z
			 M26.6,1.5c0.1,0,0.2,0,0.2-0.1s-0.1-0.1-0.2-0.1h-0.2v0.3H26.6L26.6,1.5z M26.6,2.2c-0.5,0-0.8-0.3-0.8-0.8s0.3-0.8,0.8-0.8
			c0.4,0,0.7,0.3,0.7,0.8S26.9,2.2,26.6,2.2L26.6,2.2z M26.6,0.9c-0.3,0-0.6,0.3-0.6,0.6c0,0.3,0.2,0.6,0.6,0.6
			c0.3,0,0.6-0.3,0.6-0.6C27.1,1.1,26.9,0.9,26.6,0.9L26.6,0.9z"/>
	</g>
	<g>
		<path class="st1" d="M13.2,23.4c1.3,1.2,3.1,2,5,2c4.1,0,7.5-3.4,7.5-7.5c0-4.2-3.3-7.6-7.5-7.6c-1.9,0-3.7,0.7-5,1.9
			c-1.5,1.4-2.5,3.4-2.5,5.6S11.8,22,13.2,23.4L13.2,23.4z"/>
		<path class="st1" d="M24.8,22c0-0.1,0.1-0.2,0.2-0.2s0.2,0.1,0.2,0.2s-0.1,0.2-0.2,0.2C24.9,22.3,24.8,22.2,24.8,22L24.8,22z
			 M25,22.2c0.1,0,0.2-0.1,0.2-0.2c0-0.1-0.1-0.2-0.2-0.2s-0.2,0.1-0.2,0.2C24.9,22.1,24.9,22.2,25,22.2L25,22.2z M25,22.1L25,22.1
			l-0.1-0.2H25c0,0,0,0,0.1,0c0,0,0,0,0,0.1v0.1l0.1,0.1H25V22.1L25,22.1L25,22.1V22l0,0l0,0l0,0l0,0l0,0l0,0V22.1L25,22.1L25,22.1z
			"/>
		<path class="st2" d="M15.6,17c0-0.3-0.1-0.5-0.1-0.8h-4.6c0.1-0.3,0.1-0.5,0.2-0.8h4.1c-0.1-0.3-0.2-0.5-0.3-0.8h-3.5
			c0.1-0.3,0.3-0.5,0.4-0.8h2.6c-0.2-0.3-0.4-0.5-0.6-0.8h-1.5c0.2-0.3,0.5-0.6,0.8-0.8c-1.2-1.2-3-1.9-4.9-1.9
			c-4.1,0-7.5,3.4-7.5,7.5s3.4,7.5,7.5,7.5c1.9,0,3.7-0.7,5-2l0,0l0,0c0.3-0.2,0.5-0.5,0.7-0.8h-1.5c-0.2-0.3-0.4-0.5-0.6-0.8h2.6
			c0.2-0.3,0.3-0.5,0.4-0.8h-3.5c-0.1-0.3-0.2-0.5-0.3-0.8h4.1c0.1-0.3,0.2-0.5,0.2-0.8c0.1-0.3,0.1-0.5,0.1-0.8c0-0.3,0-0.5,0-0.8
			C15.8,17.6,15.6,17.3,15.6,17L15.6,17z"/>
		<path class="st3" d="M24.8,19.6c0-0.2,0.1-0.3,0.2-0.3s0.2,0.1,0.2,0.2s-0.1,0.2-0.2,0.2C24.9,19.8,24.8,19.7,24.8,19.6L24.8,19.6
			z M25,19.8c0.1,0,0.2-0.1,0.2-0.2c0-0.1-0.1-0.2-0.2-0.2s-0.2,0.1-0.2,0.2C24.9,19.7,24.9,19.8,25,19.8L25,19.8z M25,19.7L25,19.7
			l-0.1-0.2H25c0,0,0,0,0.1,0c0,0,0,0,0,0.1C25,19.5,25,19.6,25,19.7h0.1H25L25,19.7L25,19.7L25,19.7L25,19.7L25,19.7L25,19.7
			L25,19.7L25,19.7L25,19.7L25,19.7L25,19.7L25,19.7L25,19.7z"/>
		<path class="st4" d="M10.8,20c-0.3,0.1-0.5,0.1-0.6,0.1c-0.4,0-0.7-0.2-0.7-0.7c0-0.1,0-0.2,0-0.3l0.1-0.3v-0.2l0.3-2.1h0.9
			l-0.1,0.4h0.5L11,17.7h-0.5L10.4,19c0,0.1,0,0.1,0,0.1c-0.1,0.2,0,0.2,0.2,0.2c0.1,0,0.2,0,0.2,0V20L10.8,20z"/>
		<path class="st4" d="M13.2,20c-0.3,0.1-0.5,0.1-0.8,0.1c-0.9,0-1.4-0.5-1.4-1.4c0-1.1,0.6-1.8,1.4-1.8c0.7,0,1.1,0.4,1.1,1.1
			c0,0.2,0,0.5-0.1,0.8h-1.6c0,0.1,0,0.1,0,0.1c0,0.4,0.2,0.5,0.7,0.5c0.3,0,0.6-0.1,0.8-0.2L13.2,20L13.2,20z M12.8,18.1
			c0-0.1,0-0.1,0-0.2c0-0.3-0.1-0.4-0.4-0.4c-0.3,0-0.4,0.2-0.5,0.6H12.8L12.8,18.1z"/>
		<polygon class="st4" points="4.6,20 3.8,20 4.2,17.1 3.2,20 2.5,20 2.5,17.1 2,20 1.2,20 1.9,16.2 3,16.2 3,18.6 3.8,16.2 
			5.2,16.2 		"/>
		<path class="st4" d="M6.4,18.7c-0.1,0-0.1,0-0.2,0c-0.5,0-0.7,0.2-0.7,0.5c0.1,0.1,0.2,0.2,0.4,0.2C6.2,19.4,6.4,19.1,6.4,18.7
			L6.4,18.7z M7.2,20H6.4v-0.3c-0.2,0.3-0.5,0.4-0.9,0.4c-0.4,0-0.7-0.3-0.7-0.9c0-0.1,0-0.3,0.1-0.4C5.1,18.3,5.6,18,6.2,18
			c0.1,0,0.2,0,0.4,0c0-0.1,0-0.1,0-0.2c0-0.2-0.2-0.3-0.5-0.3c-0.2,0-0.5,0-0.7,0.1H5.4H5.3l0.1-0.7c0.4,0,0.7,0,1,0
			c0.7,0,1.1,0.3,1.1,0.9c0,0.2,0,0.3,0,0.6l-0.3,1.1v0.2v0.2V20L7.2,20L7.2,20z"/>
		<path class="st4" d="M17.1,17c0.2,0,0.4,0.1,0.7,0.2l0.1-0.9c0,0-0.1,0-0.2,0l-0.3-0.1c-0.1,0-0.2,0-0.4,0c-0.4,0-0.6,0-0.9,0.2
			c-0.1,0.1-0.3,0.2-0.5,0.4h-0.1l-0.8,0.5V17h-0.9l-0.5,3.1h0.8l0.3-1.7c0,0,0.1-0.2,0.2-0.3c0.2-0.2,0.3-0.2,0.5-0.2h0.1
			c0,0.2,0,0.4,0,0.6c0,1,0.6,1.6,1.4,1.6c0.2,0,0.4,0,0.7-0.1l0.1-0.9c-0.2,0.2-0.4,0.2-0.6,0.2c-0.5,0-0.8-0.4-0.8-0.9
			C16.1,17.6,16.6,17,17.1,17L17.1,17z"/>
		<path class="st4" d="M24,16.2l-0.2,1.1c-0.2-0.3-0.4-0.4-0.7-0.4c-0.4,0-0.8,0.2-1.1,0.7l0,0l-0.5-0.3l0.1-0.3h-0.9l-0.5,3.1H21
			l0.3-1.7c0,0,0.2-0.2,0.3-0.3c0.1-0.2,0.3-0.2,0.4-0.2c-0.2,0.2-0.2,0.5-0.2,0.9c0,0.8,0.4,1.3,1,1.3c0.3,0,0.5-0.1,0.8-0.3v0.3
			h0.8l0.6-3.8h-1V16.2z M23,19.3c-0.3,0-0.4-0.2-0.4-0.6c0-0.6,0.3-1,0.6-1c0.3,0,0.4,0.2,0.4,0.6C23.6,18.9,23.4,19.3,23,19.3
			L23,19.3z"/>
		<path class="st4" d="M19.2,18.7c-0.1,0-0.1,0-0.2,0c-0.5,0-0.7,0.2-0.7,0.5c0,0.2,0.1,0.3,0.3,0.3C19,19.4,19.2,19.1,19.2,18.7
			L19.2,18.7z M19.9,20h-0.7v-0.3c-0.2,0.2-0.4,0.4-0.9,0.4c-0.4,0-0.7-0.3-0.7-0.9c0-0.7,0.6-1.2,1.4-1.2c0.1,0,0.2,0,0.4,0
			c0-0.1,0-0.1,0-0.2c0-0.2-0.2-0.3-0.6-0.3c-0.2,0-0.5,0-0.7,0.1h-0.1h-0.1l0.1-0.7c0.4-0.1,0.6-0.2,0.9-0.2c0.7,0,1.1,0.3,1.1,0.9
			c0,0.2,0,0.3,0,0.6l-0.2,1.1v0.2v0.2L19.9,20L19.9,20L19.9,20z"/>
		<path class="st4" d="M8.8,17.6c0.2,0,0.4,0,0.6,0.1L9.5,17c-0.2-0.1-0.5-0.1-0.7-0.1c-0.9,0-1.2,0.5-1.2,1.1
			c0,0.3,0.2,0.6,0.7,0.8C8.6,19,8.7,19,8.7,19.1c0,0.2-0.2,0.3-0.5,0.3c-0.2,0-0.5,0-0.7-0.1L7.2,20l0,0h0.2c0.1,0,0.1,0,0.2,0
			c0.2,0,0.4,0,0.5,0c0.9,0,1.3-0.3,1.3-1c0-0.4-0.2-0.7-0.6-0.9C8.4,18,8.4,18,8.4,17.9C8.4,17.7,8.6,17.6,8.8,17.6L8.8,17.6z"/>
		<path class="st3" d="M18.2,16.1l-0.1,0.8c-0.3-0.1-0.5-0.2-0.7-0.2c-0.6,0-1,0.6-1,1.4c0,0.6,0.3,0.9,0.8,0.9
			c0.2,0,0.4-0.1,0.7-0.2l-0.1,0.9c-0.3,0.1-0.5,0.1-0.7,0.1c-0.9,0-1.4-0.6-1.4-1.7c0-1.4,0.7-2.3,1.8-2.3c0.1,0,0.3,0,0.4,0
			l0.3,0.1C18.1,16.1,18.1,16.1,18.2,16.1L18.2,16.1z"/>
		<path class="st3" d="M15.6,16.7L15.6,16.7c-0.4,0-0.5,0.1-0.7,0.5l0.1-0.5h-0.7l-0.5,3.1h0.8c0.3-1.9,0.4-2.2,0.8-2.2
			c0,0,0,0,0.1,0C15.4,17.2,15.4,16.9,15.6,16.7L15.6,16.7L15.6,16.7z"/>
		<path class="st3" d="M10.9,19.8c-0.3,0-0.4,0.1-0.6,0.1c-0.4,0-0.6-0.2-0.6-0.7c0-0.1,0-0.2,0-0.3v-0.3v-0.2l0.3-2.1h0.8l-0.1,0.5
			h0.4L11,17.6h-0.3l-0.2,1.1c0,0.1,0,0.1,0,0.1c0,0.2,0.1,0.2,0.3,0.2c0.1,0,0.2,0,0.2,0L10.9,19.8L10.9,19.8z"/>
		<path class="st3" d="M7.8,17.7c0,0.4,0.2,0.7,0.6,0.9c0.3,0.1,0.3,0.1,0.3,0.3s-0.1,0.3-0.5,0.3c-0.2,0-0.5,0-0.7-0.1l-0.1,0.7
			l0,0h0.1c0.1,0,0.1,0,0.2,0c0.2,0,0.3,0,0.4,0c0.9,0,1.3-0.3,1.3-1c0-0.4-0.2-0.7-0.6-0.9c-0.2-0.1-0.2-0.1-0.2-0.3
			c0-0.2,0.1-0.2,0.4-0.2c0.2,0,0.4,0,0.6,0l0.1-0.7c-0.2,0-0.5-0.1-0.7-0.1C8.2,16.6,7.8,17.1,7.8,17.7L7.8,17.7z"/>
		<path class="st3" d="M24.4,19.8h-0.8v-0.3c-0.2,0.2-0.5,0.3-0.8,0.3c-0.6,0-1-0.5-1-1.3c0-1,0.6-1.9,1.3-1.9
			c0.3,0,0.6,0.1,0.8,0.4l0.2-1.1h0.8L24.4,19.8L24.4,19.8z M23.2,19.1c0.4,0,0.6-0.4,0.6-1c0-0.4-0.1-0.6-0.4-0.6
			c-0.4,0-0.6,0.4-0.6,1C22.8,18.9,23,19.1,23.2,19.1L23.2,19.1z"/>
		<path class="st3" d="M13.4,19.7c-0.3,0.1-0.5,0.1-0.8,0.1c-0.9,0-1.4-0.5-1.4-1.4c0-1.1,0.6-1.8,1.4-1.8c0.7,0,1.1,0.4,1.1,1.1
			c0,0.2,0,0.5-0.1,0.8h-1.6v0.1c0,0.4,0.2,0.5,0.7,0.5c0.3,0,0.6-0.1,0.8-0.2L13.4,19.7L13.4,19.7z M12.9,17.9c0-0.1,0-0.1,0-0.2
			c0-0.3-0.1-0.4-0.4-0.4c-0.3,0-0.4,0.2-0.5,0.6H12.9L12.9,17.9z"/>
		<polygon class="st3" points="4.8,19.8 4,19.8 4.3,16.9 3.3,19.8 2.8,19.8 2.8,16.9 2.2,19.8 1.5,19.8 2.2,16 3.2,16 3.3,18.3 
			4.1,16 5.3,16 		"/>
		<path class="st3" d="M6.8,18.4c-0.1,0-0.1,0-0.2,0c-0.5,0-0.7,0.2-0.7,0.5c0,0.2,0.1,0.3,0.3,0.3C6.4,19.2,6.8,18.9,6.8,18.4
			L6.8,18.4z M7.3,19.8H6.7v-0.3c-0.2,0.2-0.5,0.3-0.8,0.3c-0.4,0-0.7-0.3-0.7-0.8c0-0.8,0.5-1.2,1.4-1.2c0.1,0,0.2,0,0.3,0
			c0-0.1,0-0.1,0-0.2c0-0.2-0.1-0.3-0.5-0.3c-0.2,0-0.5,0-0.7,0.1H5.6H5.5l0.1-0.7c0.4-0.1,0.7-0.2,1-0.2c0.7,0,1.1,0.3,1.1,0.9
			c0,0.2,0,0.3-0.1,0.6l-0.2,1.3v0.2v0.2V19.8L7.3,19.8L7.3,19.8z"/>
		<path class="st3" d="M19.5,18.4c-0.1,0-0.1,0-0.2,0c-0.5,0-0.7,0.2-0.7,0.5c0,0.2,0.1,0.3,0.3,0.3C19.2,19.2,19.5,18.9,19.5,18.4
			L19.5,18.4z M20.1,19.8h-0.7v-0.3c-0.2,0.3-0.5,0.4-0.9,0.4s-0.7-0.3-0.7-0.8c0-0.8,0.5-1.2,1.4-1.2c0.1,0,0.2,0,0.3,0
			c0-0.1,0-0.1,0-0.2c0-0.2-0.1-0.3-0.5-0.3c-0.2,0-0.5,0-0.7,0.1h-0.1h-0.1l0.1-0.7c0.4-0.1,0.7-0.2,1-0.2c0.7,0,1.1,0.3,1.1,0.9
			c0,0.2,0,0.3-0.1,0.6l-0.1,1.2v0.2v0.2V19.8L20.1,19.8L20.1,19.8z"/>
		<path class="st3" d="M22.2,16.7L22.2,16.7c-0.3,0-0.5,0.1-0.7,0.5l0.1-0.5h-0.7l-0.5,3.1h0.8c0.3-1.9,0.4-2.2,0.8-2.2l0,0
			C22,17.2,22.1,16.9,22.2,16.7L22.2,16.7L22.2,16.7z"/>
	</g>
</g>
</svg>
